# xmcd
#
# Track frame offsets: 
#        180
#        18168
#        35911
#        64109
#        78961
#        101757
#        123690
#        144208
#        162806
#        193930
#        216960
#        239181
#        266478
#        285576
#
# Disc length: 4037 seconds
#
# Revision: 2
# Processed by: cddbd v1.5.2PL0 Copyright (c) Steve Scherf et al.
# Submitted via: ExactAudioCopy v0.99pb3
#
DISCID=d10fc30e
DTITLE=Banana Peel Bluesband - Live At The Banana Peel
DYEAR=1997
DGENRE=Blues
TTITLE0=Out Of Sight, Out Of Mind
TTITLE1=Make My Guitar Talk, Talk, Talk To You
TTITLE2=It's Rainin' In My Life
TTITLE3=Honky Tonk Train
TTITLE4=The Thrill In Gone
TTITLE5=The Break Of Day
TTITLE6=The Walking Blues
TTITLE7=Milburn's Boogie
TTITLE8=Wait Baby
TTITLE9=Blues Of The Monthclub
TTITLE10=Backside Of Paradise
TTITLE11=Kokomo
TTITLE12=That's All Right
TTITLE13=Bad Blood
EXTD=
EXTT0=
EXTT1=
EXTT2=
EXTT3=
EXTT4=
EXTT5=
EXTT6=
EXTT7=
EXTT8=
EXTT9=
EXTT10=
EXTT11=
EXTT12=
EXTT13=
PLAYORDER=
